<svg xmlns="http://www.w3.org/2000/svg" width="73.191" height="33.959" viewBox="0 0 73.191 33.959"><path d="M0 25.14s16.17-4.457 17.344-4.86c.33-.112 3.804-1.159 4.15-1.247.271-.073 4.495-1.466 8.463-2.664 4.875-1.468 8.915-3.446 9.247-3.576 1.99-.782 3.221-1.728 5.357-2.13 1.287.889 2.664 2.89 2.707 4.25.556-.894.688-1.96 1.53-2.636.614-.488 1.307-.377 1.897-.2 1.138 1.068 1.729 3.208 1.925 4.662.097.722 1.243.934 1.952.932 4.126-.287 7.731-1.658 11.165-2.961 1.22-.467 2.434-.956 3.607-1.532 1.128-.553 2.838-1.602 3.288-1.842-.155.347-.332 1.088-.32 1.451.017.644-.163.782.396 1.416.679.772.565 2.036.135 2.916-.523 1.054-1.83 1.656-3.104 2.278-1.268.625-1.955.957-2.967 1.356-2.776 1.093-4.773 2.1-8.492 2.83-.963.19-3.199.496-4.297.637-.532.072-2.186.235-2.616.02-1.816-.908-2.724-4.408-2.814-4.317-.646.664-.773.943-1.182 1.77-.711 1.446-1.568 4.626-2.184 6.092-.034.076-1.097-.243-1.603-.476-.802-.369-2.259-1.395-2.225-1.435.408-.503.952-2.928 1.28-4.43.41-1.881 1.03-3.796.854-5.714-.065-.716-.288-1.713-.7-2.04-.445-.349-.836-.255-1.374-.01-.214.101-3.258 1.116-8.974 2.768-3.696 1.07-8.433 2.592-12.394 3.73-7.432 2.141-13.932 4.003-14.223 4.09-.464.14-5.408 1.227-5.47.937"/><path d="M65.943 0c-1.16.485-7.477 2.503-11.857 3.273-2.153.38-4.189.128-4.443.057-.332-.089-.702-.146-1.036-.353.122.796.252 1.606.528 2.365.384 1.057.71 2.248 1.55 2.996.755.672 1.827 1.013 2.836 1.074 3.073.185 7.19-1.595 8.965-2.213-.168.994-2.828 9.797-3.384 12.367-.1.457-.673 2.622-.85 3.26-.057.222-.433 2.657-.852 3.598-.132.3-1.92 5.938-1.02 7.535.02.038.736-.972.923-1.057.165-.075.914.05 1.002-.068.69-.897.572-2.396.69-3.479.027-.289.284-3.424.683-4.892 1.073-3.963 2.108-7.91 3.25-11.854.313-1.084 1.228-3.818 1.765-4.841 1.163-1.185 1.747-1.85 1.909-2.52-.286-2.384-.465-2.938-.502-3.082A11.944 11.944 0 0165.943 0z"/></svg>
